<?xml version="1.0" encoding="utf-8"?>
<!-- Generator: Adobe Illustrator 25.4.1, SVG Export Plug-In . SVG Version: 6.00 Build 0)  -->
<svg version="1.1" id="katman_1" xmlns="http://www.w3.org/2000/svg" xmlns:xlink="http://www.w3.org/1999/xlink" x="0px" y="0px"
	 viewBox="0 0 118 55" style="enable-background:new 0 0 118 55;" xml:space="preserve">
<style type="text/css">
	.st0{fill:#3C3C3B;}
	.st1{fill:#1F7E1F;}
	.st2{fill:#B22222;}
</style>
<g>
	<path class="st0" d="M23.63,10.59c2.22,1.53,3.33,3.82,3.33,6.85c0,3.13-1.27,5.61-3.82,7.44c-2.48,1.76-5.97,2.68-10.48,2.74
		l-7,0.05v14.78H2.29V27.72H-0.4v-2.89h2.69V8.29h11.55C18.15,8.29,21.41,9.06,23.63,10.59z M20.35,22.88
		c2.02-1.27,3.04-3.08,3.04-5.43c0-4.14-3.23-6.22-9.69-6.22H5.67v13.56h5.87C15.39,24.79,18.33,24.15,20.35,22.88z"/>
	<path class="st0" d="M32.98,11.27V24.2h14.48v2.79H32.98v12.48h18.25v2.99H29.61V8.29h21.63v2.99H32.98z"/>
	<path class="st0" d="M118,42.46h-3.82l-4.55-9.01H91.27l-4.36,9.01H83.1l4.41-9.01h-2.45v-2.99h3.87L99.74,8.29h1.03L118,42.46z
		 M108.11,30.46l-7.78-15.86l-7.64,15.86H108.11z"/>
	<g>
		<path class="st1" d="M52.73,26.61c-0.95-2.42-1.11-4.67-0.48-6.98c0.99-3.62,3.25-6.37,6.02-8.76c3.55-3.08,7.64-5.27,11.9-7.16
			c3.2-1.41,6.49-2.59,9.85-3.54c0.21-0.06,0.48-0.26,0.64-0.03c0.08,0.12-0.04,0.39-0.1,0.59c-1.64,5.24-3.29,10.47-4.91,15.71
			c-0.15,0.5-0.39,0.71-0.89,0.82c-3.44,0.78-6.79,1.86-9.88,3.61c-1.75,0.99-3.34,2.19-4.55,3.83c-2.42,3.28-1.97,7.24,1.12,9.85
			c0.09,0.08,0.19,0.16,0.29,0.26c-0.46,0.28-0.82-0.01-1.17-0.17c-4.86-2.13-6.49-7.01-3.95-11.88c1.16-2.23,2.89-3.98,4.87-5.5
			c2.08-1.59,4.38-2.78,6.8-3.76c0.52-0.21,0.75-0.12,0.85,0.44c0.1,0.54,0.29,1.06,0.41,1.6c0.12,0.54,0.32,0.49,0.65,0.15
			c1.67-1.7,3.35-3.41,5.05-5.09c0.44-0.44,0.33-0.59-0.22-0.73C73,9.35,70.97,8.8,68.94,8.27C67.5,7.9,67.5,7.9,67.88,9.33
			c0.38,1.41,0.37,1.39-0.99,1.94c-4,1.59-7.67,3.67-10.49,7.02c-1.85,2.2-3.04,4.71-3.51,7.55C52.86,26.02,52.81,26.2,52.73,26.61z
			"/>
		<path class="st2" d="M56.8,45.03c2.81,0.74,5.32,1.39,7.83,2.06c0.46,0.12,0.51-0.04,0.41-0.42c-0.14-0.51-0.25-1.02-0.43-1.51
			c-0.22-0.59-0.07-0.85,0.55-1.08c3.07-1.14,5.96-2.59,8.51-4.69c3.21-2.65,5.4-5.9,6.11-10.07c0.02-0.13,0.05-0.26,0.09-0.38
			c0.02-0.07,0.06-0.14,0.12-0.32c0.69,1.68,0.97,3.34,0.78,5.06c-0.36,3.29-1.93,6.02-4.12,8.41c-3.39,3.7-7.62,6.24-12.09,8.39
			c-3.79,1.82-7.73,3.29-11.78,4.43c-0.24,0.07-0.52,0.28-0.73,0.07c-0.19-0.19,0.02-0.44,0.09-0.66
			c1.59-5.11,3.21-10.21,4.78-15.33c0.22-0.72,0.58-1.04,1.31-1.21c3.6-0.83,7.08-1.98,10.24-3.94c2.21-1.36,4.11-3.03,5.01-5.56
			c1.1-3.1-0.11-6.35-2.93-8.02c-0.11-0.07-0.25-0.1-0.28-0.25c5.41,0.87,8.45,6.12,6.28,11.31c-1.53,3.65-4.36,6.1-7.65,8.11
			c-1.44,0.88-2.97,1.56-4.52,2.21c-0.57,0.24-0.73,0.05-0.84-0.46c-0.12-0.56-0.3-1.12-0.45-1.67c-0.07-0.26-0.16-0.49-0.46-0.2
			C60.73,41.17,58.85,43.02,56.8,45.03z"/>
	</g>
</g>
</svg>
